<svg width="18" height="18" viewBox="0 0 18 18" fill="none" xmlns="http://www.w3.org/2000/svg">
<path d="M10.9583 8.99996L16.9305 3.04163C17.192 2.7801 17.339 2.42538 17.339 2.05552C17.339 1.68566 17.192 1.33094 16.9305 1.06941C16.669 0.807877 16.3143 0.66095 15.9444 0.66095C15.5745 0.66095 15.2198 0.807877 14.9583 1.06941L8.99995 7.04163L3.04162 1.06941C2.78009 0.807877 2.42537 0.66095 2.05551 0.66095C1.68565 0.66095 1.33093 0.807877 1.0694 1.06941C0.807867 1.33094 0.66094 1.68566 0.66094 2.05552C0.66094 2.42538 0.807867 2.7801 1.0694 3.04163L7.04162 8.99996L1.0694 14.9583C0.939222 15.0874 0.835897 15.241 0.765385 15.4103C0.694873 15.5795 0.658569 15.7611 0.658569 15.9444C0.658569 16.1278 0.694873 16.3093 0.765385 16.4785C0.835897 16.6478 0.939222 16.8014 1.0694 16.9305C1.19852 17.0607 1.35213 17.164 1.52138 17.2345C1.69063 17.305 1.87216 17.3413 2.05551 17.3413C2.23886 17.3413 2.4204 17.305 2.58965 17.2345C2.75889 17.164 2.91251 17.0607 3.04162 16.9305L8.99995 10.9583L14.9583 16.9305C15.0874 17.0607 15.241 17.164 15.4103 17.2345C15.5795 17.305 15.761 17.3413 15.9444 17.3413C16.1277 17.3413 16.3093 17.305 16.4785 17.2345C16.6478 17.164 16.8014 17.0607 16.9305 16.9305C17.0607 16.8014 17.164 16.6478 17.2345 16.4785C17.305 16.3093 17.3413 16.1278 17.3413 15.9444C17.3413 15.7611 17.305 15.5795 17.2345 15.4103C17.164 15.241 17.0607 15.0874 16.9305 14.9583L10.9583 8.99996Z" fill="black"/>
</svg>
